<svg width="18" height="18" viewBox="0 0 18 18" fill="none" xmlns="http://www.w3.org/2000/svg">
<path d="M14.9709 1.24502C14.9039 1.19188 14.8255 1.15496 14.7418 1.13715C14.6581 1.11934 14.5715 1.12113 14.4886 1.14237L5.4886 3.39237C5.36702 3.42276 5.25908 3.49287 5.18189 3.59159C5.10469 3.69031 5.06268 3.81197 5.0625 3.93729V11.6787C4.59321 11.3651 4.03258 11.2174 3.46971 11.259C2.90684 11.3006 2.37402 11.5291 1.95591 11.9083C1.53781 12.2874 1.25841 12.7954 1.16211 13.3515C1.06582 13.9077 1.15816 14.48 1.42445 14.9777C1.69075 15.4753 2.11572 15.8697 2.63184 16.0981C3.14796 16.3265 3.72561 16.3759 4.27301 16.2383C4.82041 16.1008 5.30614 15.7843 5.65302 15.3391C5.9999 14.8938 6.18802 14.3454 6.1875 13.781V7.18924L14.0625 5.22049V9.4287C13.5932 9.11514 13.0326 8.96742 12.4697 9.00901C11.9068 9.05061 11.374 9.27913 10.9559 9.65826C10.5378 10.0374 10.2584 10.5454 10.1621 11.1015C10.0658 11.6577 10.1582 12.23 10.4245 12.7277C10.6907 13.2253 11.1157 13.6197 11.6318 13.8481C12.148 14.0765 12.7256 14.1259 13.273 13.9883C13.8204 13.8508 14.3061 13.5343 14.653 13.0891C14.9999 12.6438 15.188 12.0954 15.1875 11.531V1.68729C15.1873 1.60197 15.1677 1.51782 15.1302 1.4412C15.0927 1.36458 15.0382 1.29749 14.9709 1.24502Z" fill="#00C853"/>
</svg>
