<svg width="20" height="20" viewBox="0 0 20 20" fill="none" xmlns="http://www.w3.org/2000/svg">
<g clip-path="url(#clip0_568_2456)">
<path d="M10.6259 6.25012V9.64621L13.4477 11.3392C13.5899 11.4245 13.6923 11.5629 13.7324 11.7238C13.7726 11.8846 13.7472 12.0549 13.6618 12.197C13.5764 12.3391 13.4381 12.4415 13.2772 12.4817C13.1164 12.5218 12.9461 12.4964 12.804 12.4111L9.67898 10.5361C9.58649 10.4805 9.50996 10.4019 9.45684 10.308C9.40373 10.2141 9.37582 10.108 9.37586 10.0001V6.25012C9.37586 6.08436 9.44171 5.92539 9.55892 5.80818C9.67613 5.69097 9.8351 5.62512 10.0009 5.62512C10.1666 5.62512 10.3256 5.69097 10.4428 5.80818C10.56 5.92539 10.6259 6.08436 10.6259 6.25012ZM17.7399 4.42277C17.6257 4.3754 17.5001 4.36296 17.3788 4.38701C17.2575 4.41107 17.1461 4.47055 17.0587 4.55793L16.0946 5.52434C15.8423 5.25012 15.5821 4.97746 15.3055 4.69699C14.2632 3.65458 12.9369 2.94243 11.4921 2.64954C10.0474 2.35664 8.54839 2.49599 7.18241 3.05017C5.81643 3.60435 4.64404 4.54878 3.81175 5.76546C2.97945 6.98214 2.52415 8.41712 2.50274 9.89108C2.48134 11.365 2.89477 12.8126 3.69137 14.053C4.48798 15.2933 5.63245 16.2714 6.98176 16.865C8.33107 17.4586 9.8254 17.6415 11.278 17.3906C12.7307 17.1398 14.0772 16.4665 15.1493 15.4548C15.209 15.3984 15.257 15.3307 15.2906 15.2558C15.3242 15.1808 15.3426 15.0999 15.345 15.0178C15.3473 14.9357 15.3334 14.8539 15.3041 14.7771C15.2748 14.7004 15.2307 14.6301 15.1743 14.5704C15.1179 14.5107 15.0502 14.4627 14.9753 14.4291C14.9003 14.3956 14.8194 14.3771 14.7373 14.3748C14.6552 14.3724 14.5734 14.3863 14.4966 14.4156C14.4199 14.4449 14.3496 14.489 14.2899 14.5454C13.3965 15.3884 12.2746 15.9494 11.0642 16.1585C9.85385 16.3675 8.60871 16.2152 7.48437 15.7207C6.36002 15.2262 5.4063 14.4114 4.74236 13.378C4.07842 12.3446 3.73369 11.1385 3.75124 9.91034C3.76879 8.68218 4.14784 7.48641 4.84103 6.47241C5.53422 5.45842 6.51083 4.67116 7.64885 4.20897C8.78687 3.74679 10.0358 3.63018 11.2398 3.87371C12.4437 4.11723 13.5491 4.7101 14.418 5.57824C14.6946 5.85793 14.9548 6.13293 15.2079 6.40871L13.9337 7.68293C13.8462 7.77034 13.7866 7.88175 13.7624 8.00305C13.7382 8.12435 13.7506 8.2501 13.798 8.36436C13.8453 8.47863 13.9255 8.57627 14.0284 8.64494C14.1312 8.71361 14.2522 8.75022 14.3759 8.75012H17.5009C17.6666 8.75012 17.8256 8.68427 17.9428 8.56706C18.06 8.44985 18.1259 8.29088 18.1259 8.12512V5.00012C18.1258 4.87651 18.0892 4.75568 18.0205 4.65291C17.9518 4.55014 17.8541 4.47006 17.7399 4.42277Z" fill="#2890FF"/>
</g>
<defs>
<clipPath id="clip0_568_2456">
<rect width="20" height="20" fill="white"/>
</clipPath>
</defs>
</svg>
