<svg width="18" height="18" viewBox="0 0 18 18" fill="none" xmlns="http://www.w3.org/2000/svg">
<path d="M4.97813 12.938H2.25C2.10082 12.938 1.95774 12.8787 1.85225 12.7732C1.74676 12.6677 1.6875 12.5247 1.6875 12.3755C1.6875 12.2263 1.74676 12.0832 1.85225 11.9777C1.95774 11.8722 2.10082 11.813 2.25 11.813H4.97813C5.12731 11.813 5.27038 11.8722 5.37587 11.9777C5.48136 12.0832 5.54063 12.2263 5.54063 12.3755C5.54063 12.5247 5.48136 12.6677 5.37587 12.7732C5.27038 12.8787 5.12731 12.938 4.97813 12.938ZM7.22813 14.063H3.375C3.22582 14.063 3.08274 14.1222 2.97725 14.2277C2.87176 14.3332 2.8125 14.4763 2.8125 14.6255C2.8125 14.7747 2.87176 14.9177 2.97725 15.0232C3.08274 15.1287 3.22582 15.188 3.375 15.188H7.22813C7.37731 15.188 7.52038 15.1287 7.62587 15.0232C7.73136 14.9177 7.79063 14.7747 7.79063 14.6255C7.79063 14.4763 7.73136 14.3332 7.62587 14.2277C7.52038 14.1222 7.37731 14.063 7.22813 14.063ZM16.2534 11.7166L14.2404 10.7105C13.6785 10.4318 13.2059 10.0014 12.8762 9.46785C12.5465 8.93433 12.3729 8.31912 12.375 7.69195V5.62547C12.375 5.47714 12.3164 5.3348 12.212 5.22945C12.1076 5.1241 11.9658 5.06427 11.8174 5.06297C10.9226 5.06335 10.0642 4.70872 9.43052 4.07691C8.79686 3.4451 8.43973 2.58771 8.4375 1.69289C8.43832 1.58783 8.40971 1.48464 8.35489 1.39501C8.30008 1.30538 8.22126 1.23289 8.12736 1.18575C8.03346 1.13862 7.92824 1.11873 7.82361 1.12833C7.71899 1.13793 7.61914 1.17664 7.53539 1.24008L3.1718 4.54828C3.13998 4.57257 3.11371 4.60336 3.09474 4.63861C3.07578 4.67386 3.06455 4.71276 3.06183 4.75269C3.0591 4.79263 3.06492 4.83268 3.07892 4.87019C3.09291 4.90769 3.11475 4.94177 3.14297 4.97016L6.75984 8.58703C6.86356 8.68794 6.92548 8.82418 6.9333 8.96867C6.94112 9.11316 6.89425 9.2553 6.80203 9.3668C6.7515 9.42532 6.68945 9.47279 6.61975 9.50625C6.55005 9.53971 6.4742 9.55845 6.39694 9.56128C6.31967 9.56412 6.24266 9.551 6.17069 9.52274C6.09873 9.49448 6.03336 9.45169 5.97867 9.39703L2.25211 5.67047C2.22037 5.63859 2.18144 5.61479 2.13859 5.60106C2.09574 5.58734 2.05023 5.5841 2.00587 5.59161C1.96151 5.59911 1.9196 5.61715 1.88365 5.64421C1.84771 5.67127 1.81878 5.70656 1.7993 5.74711C1.69882 5.9571 1.66597 6.19309 1.70526 6.42254C1.74455 6.65199 1.85405 6.86361 2.01867 7.0282L10.0125 15.0234C10.0648 15.0757 10.1268 15.1171 10.1951 15.1453C10.2634 15.1735 10.3366 15.188 10.4105 15.188H15.75C16.0484 15.188 16.3345 15.0694 16.5455 14.8585C16.7565 14.6475 16.875 14.3613 16.875 14.063V12.7228C16.8757 12.5138 16.8178 12.3088 16.7079 12.1309C16.5981 11.9531 16.4407 11.8096 16.2534 11.7166Z" fill="#00C853"/>
</svg>
