<svg width="28" height="28" viewBox="0 0 28 28" fill="none" xmlns="http://www.w3.org/2000/svg">
<g clip-path="url(#clip0_437_4084)">
<path d="M14 18.375C16.4162 18.375 18.375 16.4162 18.375 14C18.375 11.5838 16.4162 9.625 14 9.625C11.5838 9.625 9.625 11.5838 9.625 14C9.625 16.4162 11.5838 18.375 14 18.375Z" stroke="white" stroke-linecap="round" stroke-linejoin="round"/>
<path d="M4.53109 19.4802C4.04763 18.6475 3.67723 17.7541 3.42969 16.8235L5.265 14.5266C5.24422 14.1755 5.24422 13.8234 5.265 13.4723L3.43078 11.1754C3.6779 10.2447 4.04754 9.35094 4.53 8.51758L7.45141 8.18945C7.68469 7.92662 7.93342 7.6779 8.19625 7.44461L8.52438 4.5243C9.35654 4.04414 10.2488 3.6767 11.1778 3.43164L13.4747 5.26695C13.8258 5.24617 14.1779 5.24617 14.5291 5.26695L16.8259 3.43273C17.7566 3.67986 18.6504 4.04949 19.4837 4.53195L19.8119 7.45336C20.0747 7.68665 20.3234 7.93537 20.5567 8.1982L23.477 8.52633C23.9605 9.35907 24.3309 10.2525 24.5784 11.183L22.7431 13.4799C22.7639 13.8311 22.7639 14.1831 22.7431 14.5343L24.5773 16.8312C24.3319 17.7616 23.9642 18.6553 23.4836 19.489L20.5622 19.8171C20.3289 20.0799 20.0802 20.3287 19.8173 20.562L19.4892 23.4823C18.6565 23.9657 17.763 24.3361 16.8325 24.5837L14.5356 22.7484C14.1845 22.7691 13.8324 22.7691 13.4813 22.7484L11.1844 24.5826C10.254 24.3372 9.36021 23.9694 8.52656 23.4888L8.19844 20.5674C7.9356 20.3341 7.68688 20.0854 7.45359 19.8226L4.53109 19.4802Z" stroke="white" stroke-linecap="round" stroke-linejoin="round"/>
</g>
<defs>
<clipPath id="clip0_437_4084">
<rect width="28" height="28" fill="white"/>
</clipPath>
</defs>
</svg>
