<svg width="20" height="20" viewBox="0 0 20 20" fill="none" xmlns="http://www.w3.org/2000/svg">
<g clip-path="url(#clip0_566_2317)">
<path d="M17.5 3.74913V7.49913C17.5 7.66489 17.4342 7.82386 17.3169 7.94107C17.1997 8.05828 17.0408 8.12413 16.875 8.12413H13.125C13.0013 8.12423 12.8804 8.08762 12.7775 8.01895C12.6746 7.95029 12.5945 7.85264 12.5471 7.73837C12.4998 7.62411 12.4874 7.49837 12.5115 7.37706C12.5357 7.25576 12.5953 7.14435 12.6828 7.05694L14.1133 5.62413C12.9625 4.52158 11.4319 3.90369 9.83828 3.89835H9.80313C8.17012 3.89515 6.60151 4.53505 5.43672 5.6796C5.31736 5.79102 5.15914 5.85131 4.99589 5.84756C4.83265 5.84382 4.67736 5.77634 4.56323 5.65956C4.44911 5.54278 4.38522 5.38598 4.38523 5.2227C4.38524 5.05941 4.44914 4.90261 4.56328 4.78585C5.95655 3.42458 7.82476 2.65877 9.77262 2.65046C11.7205 2.64215 13.5952 3.39199 15 4.74132L16.4344 3.30694C16.5219 3.21997 16.6331 3.16084 16.7542 3.13699C16.8752 3.11314 17.0006 3.12564 17.1145 3.17292C17.2285 3.2202 17.3259 3.30015 17.3945 3.40269C17.4631 3.50522 17.4998 3.62577 17.5 3.74913ZM14.5633 14.3187C13.4056 15.4494 11.8544 16.087 10.2362 16.0974C8.61795 16.1077 7.05878 15.49 5.88672 14.3741L7.31719 12.9437C7.40551 12.8564 7.46582 12.7448 7.49045 12.6231C7.51507 12.5014 7.50288 12.3751 7.45544 12.2603C7.408 12.1456 7.32745 12.0476 7.22407 11.9788C7.12069 11.91 6.99917 11.8736 6.875 11.8741H3.125C2.95924 11.8741 2.80027 11.94 2.68306 12.0572C2.56585 12.1744 2.5 12.3334 2.5 12.4991V16.2491C2.4999 16.3728 2.53651 16.4937 2.60517 16.5966C2.67384 16.6995 2.77149 16.7797 2.88576 16.827C3.00002 16.8744 3.12576 16.8867 3.24707 16.8626C3.36837 16.8384 3.47978 16.7788 3.56719 16.6913L5 15.2569C6.38453 16.5932 8.2321 17.3423 10.1562 17.3476H10.1977C12.1571 17.3526 14.0396 16.5855 15.4375 15.2124C15.5516 15.0956 15.6155 14.9388 15.6156 14.7756C15.6156 14.6123 15.5517 14.4555 15.4375 14.3387C15.3234 14.2219 15.1681 14.1544 15.0049 14.1507C14.8416 14.1469 14.6834 14.2072 14.5641 14.3187H14.5633Z" fill="#00C853"/>
</g>
<defs>
<clipPath id="clip0_566_2317">
<rect width="20" height="20" fill="white"/>
</clipPath>
</defs>
</svg>
